<svg xmlns="http://www.w3.org/2000/svg" width="1477" height="1065">
  <!-- Generous hand-drawn envelope around all five restored petals. Source
       alpha retains the fine petal contour, the envelope excludes ghosts. -->
  <path fill="white" stroke="white" stroke-width="120" d="M1058 330C1095 406 1152 446 1137 540L1110 584C1190 522 1278 542 1410 626C1330 733 1250 810 1110 778C1200 864 1220 968 1200 1065C1100 1020 972 1004 951 854C926 941 777 1000 652 1030C682 926 740 852 823 806C719 804 649 728 591 552C748 548 811 476 900 589C860 492 922 410 1058 330Z"/>
</svg>
